<?xml version="1.0" encoding="utf-8"?>
<!-- Generator: Adobe Illustrator 14.0.0, SVG Export Plug-In . SVG Version: 6.00 Build 43363)  -->
<!DOCTYPE svg PUBLIC "-//W3C//DTD SVG 1.1//EN" "http://www.w3.org/Graphics/SVG/1.1/DTD/svg11.dtd">
<svg version="1.1" id="Layer_1" xmlns="http://www.w3.org/2000/svg" xmlns:xlink="http://www.w3.org/1999/xlink" x="0px" y="0px"
	 width="96px" height="99px" viewBox="0 0 96 99" enable-background="new 0 0 96 99" xml:space="preserve">
<circle fill="#E43133" cx="48" cy="49.5" r="42.5"/>
<g enable-background="new    ">
	<path fill="#FFFFFF" d="M24.448,32.206c0.027,1.26-0.028,2.472-0.167,3.633c-0.139,1.162-0.346,2.275-0.623,3.339
		c1.169,2.213,2.574,4.123,4.212,5.733c1.638,1.61,3.633,3.003,5.985,4.179l-2.226,2.563c-2.016-1.036-3.808-2.296-5.373-3.78
		c-1.566-1.483-2.889-3.136-3.969-4.956c-0.997,2.128-2.3,4.011-3.91,5.649c-1.61,1.638-3.464,3.045-5.564,4.221l-2.478-2.395
		c3.612-2.043,6.306-4.535,8.083-7.476c1.776-2.94,2.554-6.51,2.333-10.71H24.448z M37.384,69.712v-10.92H16.636v-3.108h24.36
		v14.028H37.384z M47.044,43.798h-6.048V53.5h-3.612V31.24h3.612v9.324h6.048V43.798z"/>
	<path fill="#FFFFFF" d="M60.021,37.54c-1.119,0.084-2.316,0.133-3.591,0.146c-1.274,0.015-2.541,0.021-3.801,0.021h-2.521v-3.066
		h4.705c1.483,0,2.961,0,4.43,0c1.471,0,3.046-0.027,4.726-0.084c-0.336,4.425-1.33,8.625-2.981,12.601
		c0.896,1.876,1.987,3.653,3.275,5.334c1.287,1.68,2.688,3.149,4.2,4.41l-2.856,2.436c-1.26-1.176-2.43-2.491-3.506-3.948
		c-1.079-1.455-2.023-3.009-2.836-4.662c-1.064,1.933-2.282,3.738-3.654,5.419c-1.371,1.68-2.912,3.233-4.619,4.661l-2.898-2.142
		c3.612-2.884,6.385-6.048,8.316-9.492C58.342,45.73,59.545,41.853,60.021,37.54z M69.682,31.66h3.486v36.96h-3.486V47.83h-5.123
		v-3.066h5.123V31.66z M80.896,69.586h-3.613V31.24h3.613V69.586z"/>
</g>
</svg>
