<?xml version="1.0" encoding="utf-8"?>
<!-- Generator: Adobe Illustrator 14.0.0, SVG Export Plug-In . SVG Version: 6.00 Build 43363)  -->
<!DOCTYPE svg PUBLIC "-//W3C//DTD SVG 1.1//EN" "http://www.w3.org/Graphics/SVG/1.1/DTD/svg11.dtd">
<svg version="1.1" id="Layer_1" xmlns="http://www.w3.org/2000/svg" xmlns:xlink="http://www.w3.org/1999/xlink" x="0px" y="0px"
	 width="96px" height="99px" viewBox="0 0 96 99" enable-background="new 0 0 96 99" xml:space="preserve">
<circle fill="#E43133" cx="48" cy="49.5" r="42.5"/>
<g enable-background="new    ">
	<path fill="#FFFFFF" d="M11.882,55.474v-3.065h35.7v3.065H31.958v13.902h-3.696V55.474H11.882z M32.546,31.912
		c0.056,0.813-0.007,1.624-0.189,2.436c-0.182,0.813-0.441,1.61-0.777,2.395c0.588,0.952,1.386,1.862,2.394,2.729
		c1.008,0.868,2.142,1.652,3.402,2.353c1.26,0.7,2.589,1.309,3.99,1.827c1.399,0.519,2.772,0.917,4.116,1.196l-1.974,2.982
		c-2.8-0.644-5.404-1.687-7.812-3.129s-4.424-3.072-6.048-4.894c-0.784,1.009-1.687,1.953-2.709,2.835
		c-1.022,0.883-2.121,1.681-3.297,2.395c-1.176,0.714-2.401,1.344-3.675,1.89c-1.274,0.546-2.541,0.987-3.801,1.323l-1.974-2.898
		c2.072-0.504,3.997-1.203,5.775-2.1c1.778-0.896,3.318-1.932,4.62-3.108c1.302-1.176,2.316-2.463,3.045-3.863
		c0.728-1.4,1.078-2.856,1.05-4.368H32.546z"/>
	<path fill="#FFFFFF" d="M65.18,43.042c0.531,0.672,1.162,1.323,1.891,1.953c0.728,0.63,1.483,1.226,2.268,1.785
		c0.783,0.561,1.589,1.07,2.415,1.533c0.825,0.462,1.616,0.875,2.373,1.238L71.9,52.198c-1.597-0.813-3.158-1.792-4.684-2.94
		c-1.526-1.147-2.919-2.407-4.179-3.78c-1.737,1.765-3.612,3.283-5.628,4.558s-3.906,2.233-5.67,2.877l-2.395-2.604
		c1.848-0.644,3.633-1.483,5.355-2.52c1.722-1.036,3.282-2.19,4.683-3.465c1.399-1.274,2.59-2.632,3.57-4.074
		c0.979-1.441,1.665-2.877,2.058-4.305c-1.456,0.056-2.939,0.091-4.451,0.104c-1.513,0.015-3.025,0.021-4.537,0.021h-3.906v-3.108
		h6.469c1.764,0,3.541,0,5.334,0c1.791,0,3.668-0.027,5.628-0.084c-0.196,1.904-0.679,3.703-1.449,5.397S66.355,41.559,65.18,43.042
		z M81.602,62.488c0,1.064-0.266,2.051-0.797,2.961c-0.531,0.909-1.328,1.693-2.39,2.352c-1.063,0.658-2.39,1.176-3.983,1.555
		c-1.594,0.378-3.438,0.566-5.535,0.566c-2.096,0-3.935-0.188-5.514-0.566c-1.58-0.379-2.9-0.903-3.963-1.575
		s-1.858-1.464-2.389-2.373c-0.532-0.91-0.797-1.896-0.797-2.961s0.265-2.051,0.797-2.961c0.53-0.91,1.326-1.701,2.389-2.373
		s2.383-1.197,3.963-1.575c1.579-0.378,3.418-0.567,5.514-0.567c2.097,0,3.941,0.189,5.535,0.567s2.921,0.903,3.983,1.575
		c1.062,0.672,1.858,1.47,2.39,2.394S81.602,61.424,81.602,62.488z M77.822,62.488c0-0.588-0.176-1.148-0.525-1.681
		c-0.351-0.531-0.896-1.008-1.639-1.428s-1.68-0.756-2.813-1.008s-2.472-0.378-4.011-0.378c-1.512,0-2.828,0.126-3.948,0.378
		s-2.052,0.588-2.793,1.008c-0.742,0.42-1.288,0.896-1.638,1.428c-0.351,0.532-0.525,1.093-0.525,1.681
		c0,0.561,0.175,1.106,0.525,1.638c0.35,0.531,0.896,1.001,1.638,1.407c0.741,0.405,1.673,0.728,2.793,0.966
		c1.12,0.237,2.437,0.357,3.948,0.357c1.539,0,2.877-0.12,4.011-0.357c1.134-0.238,2.071-0.561,2.813-0.966
		c0.742-0.406,1.288-0.876,1.639-1.407C77.646,63.595,77.822,63.049,77.822,62.488z M70.893,43.546v-3.234h6.762v-9.113h3.611
		v23.478h-3.611v-11.13H70.893z"/>
</g>
</svg>
