<?xml version="1.0" encoding="utf-8"?>
<!-- Generator: Adobe Illustrator 14.0.0, SVG Export Plug-In . SVG Version: 6.00 Build 43363)  -->
<!DOCTYPE svg PUBLIC "-//W3C//DTD SVG 1.1//EN" "http://www.w3.org/Graphics/SVG/1.1/DTD/svg11.dtd">
<svg version="1.1" id="Layer_1" xmlns="http://www.w3.org/2000/svg" xmlns:xlink="http://www.w3.org/1999/xlink" x="0px" y="0px"
	 width="96px" height="99px" viewBox="0 0 96 99" enable-background="new 0 0 96 99" xml:space="preserve">
<g>
	<g>
		<path fill-rule="evenodd" clip-rule="evenodd" fill="#FFFFFF" d="M33.36,46.657v5.509h11.523v-6.01L33.36,46.657z M33.36,64.196
			h17.539v-5.516H33.36V64.196z M80.764,4.523H15.239c-3.292,0-5.957,2.664-5.957,5.957v77.438c0,3.287,2.664,5.957,5.957,5.957
			h65.525c3.286,0,5.957-2.67,5.957-5.957V10.48C86.721,7.187,84.05,4.523,80.764,4.523z M74.807,76.005
			c0,3.292-2.67,5.957-5.957,5.957H27.152c-3.292,0-5.957-2.664-5.957-5.957V22.393c0-3.292,2.664-5.957,5.957-5.957h41.698
			c3.286,0,5.957,2.664,5.957,5.957V76.005z M32.859,40.642h24.054v-6.015l-24.054-0.5V40.642z"/>
	</g>
</g>
</svg>
