<?xml version="1.0" encoding="utf-8"?>
<!-- Generator: Adobe Illustrator 14.0.0, SVG Export Plug-In . SVG Version: 6.00 Build 43363)  -->
<!DOCTYPE svg PUBLIC "-//W3C//DTD SVG 1.1//EN" "http://www.w3.org/Graphics/SVG/1.1/DTD/svg11.dtd">
<svg version="1.1" id="Layer_1" xmlns="http://www.w3.org/2000/svg" xmlns:xlink="http://www.w3.org/1999/xlink" x="0px" y="0px"
	 width="96px" height="99px" viewBox="0 0 96 99" enable-background="new 0 0 96 99" xml:space="preserve">
<circle fill="#E43133" cx="48" cy="49.5" r="40.801"/>
<g enable-background="new    ">
	<path fill="#FFFFFF" d="M49.263,20.392c1.693,0,2.938,0.598,3.737,1.794c0.797,1.196,1.196,2.813,1.196,4.851
		c0,0.355,0,0.797,0,1.329s-0.052,1.418-0.149,2.658l-1.645,18.605c-0.3,3.189-0.5,5.827-0.599,7.906
		c-0.101,2.084-0.25,3.213-0.448,3.39c-0.101,0.354-0.275,0.644-0.523,0.864c-0.25,0.222-0.773,0.332-1.569,0.332
		c-0.5,0-0.923-0.087-1.271-0.266c-0.351-0.177-0.672-0.398-0.972-0.664c-0.1-0.178-0.224-1.374-0.374-3.589
		c-0.149-2.214-0.374-4.872-0.673-7.974l-1.495-18.605c-0.101-1.239-0.175-2.126-0.224-2.658c-0.052-0.532-0.075-0.974-0.075-1.329
		c0-2.037,0.423-3.655,1.271-4.851C46.295,20.99,47.566,20.392,49.263,20.392z M49.263,67.437c1.294,0,2.49,0.621,3.588,1.86
		c1.096,1.242,1.645,2.791,1.645,4.651c0,1.685-0.523,3.146-1.57,4.386c-1.046,1.241-2.268,1.86-3.662,1.86
		c-1.297,0-2.467-0.619-3.514-1.86c-1.047-1.239-1.57-2.701-1.57-4.386c0-1.86,0.523-3.409,1.57-4.651
		C46.795,68.058,47.966,67.437,49.263,67.437z"/>
</g>
</svg>
