<?xml version="1.0" encoding="utf-8"?>
<!-- Generator: Adobe Illustrator 14.0.0, SVG Export Plug-In . SVG Version: 6.00 Build 43363)  -->
<!DOCTYPE svg PUBLIC "-//W3C//DTD SVG 1.1//EN" "http://www.w3.org/Graphics/SVG/1.1/DTD/svg11.dtd">
<svg version="1.1" xmlns="http://www.w3.org/2000/svg" xmlns:xlink="http://www.w3.org/1999/xlink" x="0px" y="0px"
	 width="448.478px" height="271.485px" viewBox="0 0 448.478 271.485" enable-background="new 0 0 448.478 271.485"
	 xml:space="preserve">
<g id="Layer_2">
	<circle opacity="0.6" cx="130.03" cy="141.77" r="16.615"/>
	<circle opacity="0.28" cx="262.03" cy="141.771" r="16.615"/>
</g>
<g id="Layer_3">
	<path fill="none" stroke="#B1B0B1" d="M156.296,110.406c0,1.565-1.269,2.834-2.834,2.834h-48.517c-1.565,0-2.834-1.269-2.834-2.834
		V76.982c0-1.565,1.269-2.834,2.834-2.834h48.517c1.565,0,2.834,1.269,2.834,2.834V110.406z"/>
	<path fill="none" stroke="#B1B0B1" d="M156.296,183.406c0,1.565-1.269,2.835-2.834,2.835h-48.517c-1.565,0-2.834-1.27-2.834-2.835
		v-63.424c0-1.565,1.269-2.834,2.834-2.834h48.517c1.565,0,2.834,1.269,2.834,2.834V183.406z"/>
	<path fill="none" stroke="#B1B0B1" d="M156.296,226.406c0,1.565-1.269,2.835-2.834,2.835h-48.517c-1.565,0-2.834-1.27-2.834-2.835
		v-33.424c0-1.565,1.269-2.835,2.834-2.835h48.517c1.565,0,2.834,1.27,2.834,2.835V226.406z"/>
	<path fill="none" stroke="#B1B0B1" d="M348.296,226.406c0,1.565-1.269,2.835-2.834,2.835H162.946c-1.566,0-2.835-1.27-2.835-2.835
		V76.982c0-1.565,1.269-2.834,2.835-2.834h182.517c1.565,0,2.834,1.269,2.834,2.834V226.406z"/>
	<line fill="none" stroke="#020202" stroke-dasharray="3,3" x1="131.03" y1="141.633" x2="263.03" y2="141.633"/>
	<text transform="matrix(1 0 0 1 17.999 43.4966)" fill="#479ED7" font-family="'NanumBarunGothicUltraLight'" font-size="24">왼쪽 버튼을 끌어 당겨 이벤트를 등록하세요.</text>
</g>
<g id="Layer_1">
	<path fill-rule="evenodd" clip-rule="evenodd" fill="#FFFFFF" stroke="#000000" d="M140.926,258.354c0,0-7.631,2.627-12.648-15.014
		l-19.15-46.752c0,0-1.515-6.864,4.842-8.865c6.356-2.002,8.864,4.844,8.864,4.844l2.799,9.539c0,0-2.562-6.04-2.562-16.963
		c0-10.921,0-39.178,0-39.178s1.586-5.462,7.142-5.462s7.143,4.552,7.143,7.143s0,51.853,0,51.853v-20.854
		c0,0,3.289-2.43,5.357-2.43c2.067,0,7.142,1.823,7.142,7.143v16.964v-12.89c0,0.001-1.813-7.646,5.357-7.646
		c0,0,7.143,1.451,7.143,7.143v13.393v-12.3c0,0,2.338-3.556,5.357-2.879c0,0,7.142,0.894,7.142,7.143
		c0,0,0.122,19.153-1.339,24.998c-1.461,5.848-7.834,40.745-15.727,40.745C149.896,258.029,140.926,258.354,140.926,258.354z"/>
	<line fill="none" stroke="#000000" x1="150.924" y1="209.051" x2="161.44" y2="209.051"/>
	<line fill="none" stroke="#000000" x1="138.426" y1="209.051" x2="148.941" y2="209.051"/>
</g>
</svg>
