<?xml version="1.0" encoding="utf-8"?>
<!-- Generator: Adobe Illustrator 14.0.0, SVG Export Plug-In . SVG Version: 6.00 Build 43363)  -->
<!DOCTYPE svg PUBLIC "-//W3C//DTD SVG 1.1//EN" "http://www.w3.org/Graphics/SVG/1.1/DTD/svg11.dtd">
<svg version="1.1" id="Layer_1" xmlns="http://www.w3.org/2000/svg" xmlns:xlink="http://www.w3.org/1999/xlink" x="0px" y="0px"
	 width="96px" height="99px" viewBox="0 0 96 99" enable-background="new 0 0 96 99" xml:space="preserve">
<g>
	<path fill-rule="evenodd" clip-rule="evenodd" fill="#ffffff" d="M81.022,49.782l10.448,1.841l-1.857,10.532l-10.549-1.863
		c-1.077,2.985-2.564,5.734-4.365,8.227l7.631,7.631l-7.553,7.564l-7.637-7.643c-2.514,1.807-5.291,3.254-8.227,4.31l1.869,10.616
		l-10.516,1.862L48.41,82.333c-2.135,0.045-4.304-0.106-6.489-0.493c-0.96-0.169-1.899-0.382-2.825-0.629l-4.467,9.584l-9.68-4.517
		l4.414-9.467c-2.68-1.773-5.028-3.95-7.07-6.374l-8.97,5.179l-5.342-9.253l8.779-5.072c-1.546-3.883-2.388-8.074-2.373-12.415
		L4.606,47.15L6.46,36.627l9.673,1.705c1.075-3.198,2.624-6.136,4.521-8.784l-6.91-6.913l7.553-7.559l6.871,6.871
		c2.676-1.944,5.645-3.487,8.801-4.57l-1.691-9.586l10.518-1.857l1.706,9.685c1.981-0.012,3.987,0.12,6.004,0.477
		c1.279,0.228,2.515,0.545,3.731,0.906l4.197-9.006l9.674,4.518l-4.253,9.138c2.659,1.871,4.972,4.149,6.958,6.677l8.922-5.156
		l5.342,9.256l-9.022,5.216C80.428,41.458,81.13,45.563,81.022,49.782z M50.473,33.316c-8.639-1.526-16.879,4.247-18.402,12.895
		c-1.523,8.644,4.245,16.887,12.884,18.413c8.641,1.526,16.884-4.248,18.398-12.895C64.879,43.085,59.111,34.84,50.473,33.316z"/>
	<path fill-rule="evenodd" clip-rule="evenodd" fill="#FFFFFF" d="M48.068,39.328c5.397,0,9.774,4.374,9.774,9.772
		c0,5.4-4.377,9.777-9.774,9.777c-5.398,0-9.775-4.377-9.775-9.777C38.293,43.702,42.67,39.328,48.068,39.328z"/>
</g>
</svg>
