<?xml version="1.0" encoding="utf-8"?>
<!-- Generator: Adobe Illustrator 14.0.0, SVG Export Plug-In . SVG Version: 6.00 Build 43363)  -->
<!DOCTYPE svg PUBLIC "-//W3C//DTD SVG 1.1//EN" "http://www.w3.org/Graphics/SVG/1.1/DTD/svg11.dtd">
<svg version="1.1" id="Layer_1" xmlns="http://www.w3.org/2000/svg" xmlns:xlink="http://www.w3.org/1999/xlink" x="0px" y="0px"
	 width="96px" height="99px" viewBox="0 0 96 99" enable-background="new 0 0 96 99" xml:space="preserve">
<g>
	<g>
		<path fill-rule="evenodd" clip-rule="evenodd" fill="#FFFFFF" d="M77.402,31.776c0-16.159-13.099-29.26-29.259-29.26
			c-16.161,0-29.26,13.101-29.26,29.26c0,7.797,3.056,14.876,8.029,20.121l21.213,41.806l-0.008,1.364l0.351-0.69l0.35,0.69
			l-0.008-1.364l22.114-43.574C74.973,45.11,77.402,38.728,77.402,31.776z M48.143,44.315c-6.926,0-12.539-5.614-12.539-12.539
			c0-6.926,5.613-12.539,12.539-12.539c6.925,0,12.539,5.613,12.539,12.539C60.681,38.702,55.068,44.315,48.143,44.315z"/>
	</g>
</g>
</svg>
