<?xml version="1.0" encoding="utf-8"?>
<!-- Generator: Adobe Illustrator 14.0.0, SVG Export Plug-In . SVG Version: 6.00 Build 43363)  -->
<!DOCTYPE svg PUBLIC "-//W3C//DTD SVG 1.1//EN" "http://www.w3.org/Graphics/SVG/1.1/DTD/svg11.dtd">
<svg version="1.1" id="Layer_1" xmlns="http://www.w3.org/2000/svg" xmlns:xlink="http://www.w3.org/1999/xlink" x="0px" y="0px"
	 width="96px" height="99px" viewBox="0 0 96 99" enable-background="new 0 0 96 99" xml:space="preserve">
<g>
	<g>
		<path fill-rule="evenodd" clip-rule="evenodd" fill="#000000" d="M84.047,8.08H56.598c-3.034,0-5.49,2.456-5.49,5.49v27.448H12.68
			c-3.034,0-5.49,2.456-5.49,5.49v38.428c0,3.034,2.456,5.49,5.49,5.49h71.367c3.029,0,5.49-2.456,5.49-5.49V13.57
			C89.537,10.536,87.076,8.08,84.047,8.08z M67.535,68H39.347v11.575h-5.035v-6.541H28.27V68h-4.026v-5.538h6.042v-5.034h4.53
			v-6.541h6.036v12.079h21.144V46.862h5.539V68z"/>
	</g>
</g>
</svg>
